<svg xmlns="http://www.w3.org/2000/svg" fill="none" aria-hidden="true" class="logo" viewBox="0 0 216 58"><path class="cls-1" d="M82.582 50.781c-.672.352-1.36.633-2.063.844-.703.21-1.413.36-2.132.445-.711.094-1.45.14-2.215.14-1.414 0-2.684-.194-3.809-.585a8.347 8.347 0 0 1-2.918-1.723 7.483 7.483 0 0 1-1.851-2.672c-.406-1.023-.61-2.144-.61-3.363 0-1.398.243-2.62.727-3.668a7.113 7.113 0 0 1 2.027-2.625 8.7 8.7 0 0 1 2.977-1.535 12.183 12.183 0 0 1 3.527-.504c1.844 0 3.934.41 6.27 1.23v4.313c-.805-.5-1.602-.914-2.39-1.242-.782-.336-1.704-.504-2.766-.504-.946 0-1.829.188-2.649.563-.82.374-1.48.91-1.98 1.605s-.75 1.508-.75 2.438c0 .82.218 1.574.656 2.261.437.68 1.043 1.223 1.816 1.63.782.398 1.66.597 2.637.597.789 0 1.535-.094 2.238-.282.703-.195 1.293-.41 1.77-.644.484-.234.98-.512 1.488-.832v4.113Zm20.32-6.914c0 1.516-.351 2.91-1.054 4.184-.696 1.273-1.735 2.285-3.117 3.035-1.383.75-3.067 1.125-5.051 1.125-2.008 0-3.707-.39-5.098-1.172-1.39-.781-2.426-1.809-3.105-3.082a8.635 8.635 0 0 1-1.008-4.09 8.59 8.59 0 0 1 1.008-4.09c.671-1.273 1.703-2.297 3.093-3.07 1.399-.781 3.102-1.172 5.11-1.172 1.5 0 2.836.223 4.007.668 1.18.445 2.149 1.05 2.907 1.816a7.539 7.539 0 0 1 1.722 2.66 8.734 8.734 0 0 1 .586 3.188Zm-4.992 0c0-.61-.09-1.164-.27-1.664a3.463 3.463 0 0 0-.82-1.312c-.36-.375-.8-.664-1.324-.868-.523-.21-1.129-.316-1.816-.316-1.313 0-2.344.383-3.094 1.148-.75.766-1.125 1.77-1.125 3.012s.375 2.25 1.125 3.024c.758.765 1.789 1.148 3.094 1.148.898 0 1.664-.176 2.297-.527a3.593 3.593 0 0 0 1.441-1.477c.328-.633.492-1.355.492-2.168Zm15.727 4.055h-7.676v-3.914h7.676v3.914Zm20.789-3.75c0 1.664-.305 3-.914 4.008-.602 1.008-1.313 1.824-2.133 2.449-1.164.914-2.793 1.371-4.887 1.371h-8.765V35.758h6.75c1.015 0 1.882.054 2.601.164.727.101 1.379.25 1.957.445.578.188 1.07.403 1.477.645.406.234.769.488 1.09.761a7.348 7.348 0 0 1 1.453 1.606c.422.617.754 1.332.996 2.144.25.813.375 1.696.375 2.649Zm-4.981-.211c0-1.32-.254-2.348-.761-3.082-.5-.742-1.106-1.238-1.817-1.488a6.391 6.391 0 0 0-2.156-.375h-2.086v9.62h2.086c1.281 0 2.391-.304 3.328-.913.938-.61 1.406-1.864 1.406-3.762ZM149.707 52h-12.246V35.758h12.047v3.258h-7.149v2.976h6.821v3.27h-6.821v3.468h7.348V52Zm14.648-4.723c0 1.016-.261 1.895-.785 2.637-.515.742-1.238 1.313-2.168 1.711-.929.39-1.996.586-3.199.586-.336 0-.75-.023-1.242-.07-.484-.04-1.133-.157-1.945-.352a15.331 15.331 0 0 1-2.52-.867v-3.984c.82.507 1.625.93 2.414 1.265a6.51 6.51 0 0 0 2.555.504c.836 0 1.375-.137 1.617-.41.25-.281.375-.543.375-.785 0-.438-.211-.805-.633-1.102-.422-.304-1.035-.617-1.84-.937a14.852 14.852 0 0 1-2.343-1.22 5.688 5.688 0 0 1-1.653-1.663c-.422-.664-.633-1.45-.633-2.356 0-.875.215-1.664.645-2.367.43-.71 1.086-1.277 1.969-1.699.883-.422 1.961-.633 3.234-.633.906 0 1.742.09 2.508.27.773.172 1.41.367 1.91.586.5.218.844.39 1.031.515v3.809a13.275 13.275 0 0 0-2.226-1.278 6.164 6.164 0 0 0-2.614-.562c-.609 0-1.05.117-1.324.352a1.1 1.1 0 0 0-.41.867c0 .32.137.597.41.832.274.234.762.52 1.465.855 1.25.586 2.25 1.114 3 1.582.75.469 1.336 1.012 1.758 1.63.43.609.644 1.37.644 2.284ZM172.617 52h-4.898V35.758h4.898V52Zm19.418-1.148c-.351.132-.652.242-.902.328a18.98 18.98 0 0 1-1.723.504c-.742.172-1.484.3-2.226.386-.735.094-1.512.14-2.332.14-1.649 0-3.172-.3-4.571-.901a7.545 7.545 0 0 1-3.363-2.801c-.836-1.266-1.254-2.82-1.254-4.664 0-1.188.215-2.352.645-3.492.437-1.149 1.101-2.067 1.992-2.754.734-.57 1.476-1.004 2.226-1.301a9.511 9.511 0 0 1 2.215-.61 17.076 17.076 0 0 1 2.379-.152c1.43 0 2.609.11 3.539.328.93.211 1.949.492 3.059.844v3.844c-.735-.43-1.512-.79-2.332-1.078-.821-.29-1.844-.434-3.071-.434-1.414 0-2.546.27-3.398.809-.844.53-1.434 1.168-1.77 1.91-.328.742-.492 1.46-.492 2.156 0 .82.192 1.578.574 2.273.383.688.961 1.243 1.735 1.665.773.414 1.707.62 2.801.62.625 0 1.289-.081 1.992-.245v-1.91h-2.203v-3.27h6.48v7.805ZM213.527 52h-4.359l-8.426-9.047V52h-4.851V35.758h4.347l8.403 9v-9h4.886V52Z"/><path class="cls-4" d="m56.081 23.572-1.806-6.692-1.828 6.692c-.142.505-.255.87-.341 1.092a1.411 1.411 0 0 1-.44.592 1.19 1.19 0 0 1-.827.265 1.35 1.35 0 0 1-.69-.159 1.101 1.101 0 0 1-.433-.44 2.918 2.918 0 0 1-.28-.675l-.19-.759-1.852-7.51a4.44 4.44 0 0 1-.174-1.002.971.971 0 0 1 .31-.759 1.016 1.016 0 0 1 .76-.296.842.842 0 0 1 .827.395c.175.363.3.748.371 1.145l1.465 6.517 1.638-6.07a9.11 9.11 0 0 1 .326-1.069c.099-.229.25-.432.44-.592.258-.191.575-.285.896-.265.319-.02.634.077.887.273.193.163.341.372.433.607.083.22.19.576.326 1.085l1.654 6.07 1.464-6.518c.052-.257.12-.51.205-.758.063-.197.175-.375.326-.516a.91.91 0 0 1 .668-.228c.28-.007.553.096.758.288a.978.978 0 0 1 .312.759 4.658 4.658 0 0 1-.167 1.002l-1.86 7.51c-.13.506-.237.878-.318 1.116-.083.241-.23.456-.425.622a1.472 1.472 0 0 1-1.676 0 1.313 1.313 0 0 1-.433-.585c-.068-.242-.182-.614-.326-1.137ZM70.155 15.914h-5.091v2.739h4.689c.271-.017.54.064.758.228a.887.887 0 0 1 0 1.236 1.085 1.085 0 0 1-.758.243h-4.69v3.171h5.266c.29-.021.578.068.804.25a.835.835 0 0 1 .273.66.813.813 0 0 1-.273.638 1.145 1.145 0 0 1-.804.25h-6.145a1.448 1.448 0 0 1-1.062-.326 1.518 1.518 0 0 1-.319-1.062V15.55c-.006-.26.043-.519.144-.759a.872.872 0 0 1 .448-.455c.241-.095.5-.14.758-.136h5.971c.288-.025.575.059.804.235a.887.887 0 0 1 0 1.267c-.224.16-.498.236-.773.212ZM80.343 24.066l-.53-1.396H75.26l-.53 1.427a4.827 4.827 0 0 1-.532 1.13.835.835 0 0 1-.759.296c-.284 0-.556-.111-.758-.311a.957.957 0 0 1-.326-.706c0-.162.025-.323.075-.478.053-.159.137-.386.25-.675l2.86-7.245c.077-.213.175-.463.29-.759.09-.266.213-.52.363-.758.133-.195.31-.356.516-.47.235-.12.495-.18.759-.175a1.64 1.64 0 0 1 .759.174c.203.115.38.273.516.463.129.19.238.394.326.607.083.212.197.5.334.865l2.92 7.2c.183.376.298.782.342 1.198a.956.956 0 0 1-.326.706 1.047 1.047 0 0 1-.76.326.956.956 0 0 1-.454-.099.812.812 0 0 1-.319-.258 2.337 2.337 0 0 1-.28-.5c-.031-.19-.114-.387-.183-.562Zm-4.476-3.095h3.33l-1.684-4.605-1.646 4.605ZM85.275 15.461 87.8 22.95l2.534-7.542c.137-.394.235-.667.303-.826a1.1 1.1 0 0 1 .327-.418c.18-.13.4-.195.622-.182.19-.001.375.048.538.144.16.092.292.223.387.38a1 1 0 0 1 .137.485 1.596 1.596 0 0 1-.046.364c-.03.129-.067.256-.113.38-.046.121-.091.25-.137.387l-2.7 7.29c-.1.281-.19.547-.29.797a3.79 3.79 0 0 1-.333.66c-.13.194-.305.355-.508.47a1.737 1.737 0 0 1-1.518 0 1.38 1.38 0 0 1-.508-.47 3.667 3.667 0 0 1-.341-.668c-.091-.242-.19-.508-.289-.758l-2.685-7.223a11.083 11.083 0 0 0-.137-.387 3.055 3.055 0 0 1-.129-.417 1.832 1.832 0 0 1-.045-.372 1.002 1.002 0 0 1 .31-.705 1.048 1.048 0 0 1 .76-.319.919.919 0 0 1 .819.349c.218.34.391.708.516 1.092ZM96.602 15.347v8.125h4.552c.304-.02.604.075.842.266a.874.874 0 0 1 .296.675.85.85 0 0 1-.289.66 1.234 1.234 0 0 1-.849.25h-5.463a1.184 1.184 0 0 1-1.365-1.38v-8.596a1.518 1.518 0 0 1 .31-1.024 1.038 1.038 0 0 1 .813-.342 1.1 1.1 0 0 1 .826.334c.232.292.348.66.327 1.032ZM104.295 24.14v-3.535l-2.724-4.226a7.34 7.34 0 0 1-.508-.896 1.358 1.358 0 0 1-.152-.553.877.877 0 0 1 .304-.668 1.031 1.031 0 0 1 .758-.28.902.902 0 0 1 .706.257c.265.33.504.68.713 1.047l2.086 3.391 2.109-3.39.319-.524a3.9 3.9 0 0 1 .288-.402c.096-.117.215-.212.349-.281a.95.95 0 0 1 .463-.099.996.996 0 0 1 .713.273.871.871 0 0 1 .281.645 1.31 1.31 0 0 1-.144.592 6.048 6.048 0 0 1-.493.827l-2.792 4.287v3.535c.026.374-.088.744-.319 1.04a1.07 1.07 0 0 1-.819.34 1.04 1.04 0 0 1-.812-.34 1.514 1.514 0 0 1-.326-1.04Z"/><path class="cls-1" d="M54.36 31.55H35.15a3.19 3.19 0 0 0-3.19 3.19v19.21a3.19 3.19 0 0 0 3.19 3.19h19.21a3.19 3.19 0 0 0 3.19-3.19V34.74a3.19 3.19 0 0 0-3.19-3.19Z"/><path class="cls-2" d="M37.71 2.11H5.55A3.19 3.19 0 0 0 2.36 5.3v32.16a3.19 3.19 0 0 0 3.19 3.19h32.16a3.19 3.19 0 0 0 3.19-3.19V5.3a3.19 3.19 0 0 0-3.19-3.19Z"/><path class="cls-5" stroke-miterlimit="10" stroke-width="2.79" d="M37.35 2H5.19A3.19 3.19 0 0 0 2 5.19v32.16a3.19 3.19 0 0 0 3.19 3.19h32.16a3.19 3.19 0 0 0 3.19-3.19V5.19A3.19 3.19 0 0 0 37.35 2Z"/><path class="cls-5" stroke-miterlimit="10" stroke-width="2.79" d="M53.67 31.01H34.46a3.19 3.19 0 0 0-3.19 3.19v19.21a3.19 3.19 0 0 0 3.19 3.19h19.21a3.19 3.19 0 0 0 3.19-3.19V34.2a3.19 3.19 0 0 0-3.19-3.19Z"/><path class="cls-3" class="cls-6" stroke-miterlimit="10" stroke-width=".75" d="M48.98 43.26H37.74a.82.82 0 1 0 0 1.64h11.24a.82.82 0 0 0 0-1.64Z"/><path class="cls-3" class="cls-6" stroke-miterlimit="10" stroke-width=".75" d="M43.82 50.179a.82.82 0 0 1 .05-1.16l4.67-4.34a.83.83 0 0 0 0-1.2l-4.67-4.34a.821.821 0 0 1-.05-1.16.822.822 0 0 1 1.16 0l6 5.54a.82.82 0 0 1 0 1.2l-6 5.54a.821.821 0 0 1-1.16-.08Z"/><path class="cls-1" d="M11.746 11.62a1.398 1.398 0 0 0-1.803-.81 1.397 1.397 0 0 0-.803 1.806l6.845 17.907a1.398 1.398 0 0 0 1.803.81 1.398 1.398 0 0 0 .803-1.807L11.746 11.62Z"/><path class="cls-1" d="m16.02 29.551 4.4-11a1.4 1.4 0 0 1 2.587-.021 1.402 1.402 0 0 1 .013 1.071l-4.41 11a1.4 1.4 0 0 1-2.6 0 1.43 1.43 0 0 1 .01-1.05Z"/><path class="cls-1" d="M20.519 11.929a1.398 1.398 0 0 0-1.803-.81 1.398 1.398 0 0 0-.803 1.806l6.844 17.906a1.398 1.398 0 0 0 1.803.81 1.397 1.397 0 0 0 .803-1.806L20.52 11.929Z"/><path class="cls-1" d="m24.78 29.86 4.4-11a1.4 1.4 0 1 1 2.6 1.04l-4.41 11a1.4 1.4 0 0 1-2.6 0 1.43 1.43 0 0 1 .01-1.04Z"/></svg>
