<svg width="24" height="23" viewBox="0 0 24 23" fill="none" xmlns="http://www.w3.org/2000/svg">
<path d="M15.25 8L19 11.75M19 11.75L15.25 15.5M19 11.75H1" stroke="black" stroke-width="1.5" stroke-linecap="round" stroke-linejoin="round"/>
<path d="M11 15L11 19.375C11 20.0712 11.2709 20.7389 11.7532 21.2312C12.2354 21.7234 12.8894 22 13.5714 22L20.4286 22C21.1106 22 21.7646 21.7234 22.2468 21.2312C22.7291 20.7389 23 20.0712 23 19.375L23 3.625C23 2.92881 22.7291 2.26113 22.2468 1.76885C21.7646 1.27656 21.1106 1 20.4286 1L13.5714 1C12.8894 1 12.2354 1.27656 11.7532 1.76884C11.2709 2.26113 11 2.92881 11 3.625L11 8" stroke="black" stroke-width="1.5" stroke-linecap="round" stroke-linejoin="round"/>
</svg>
