<svg width="24" height="23" viewBox="0 0 24 23" fill="none" xmlns="http://www.w3.org/2000/svg">
<path d="M8.75 15.5L5 11.75M5 11.75L8.75 8M5 11.75H23" stroke="black" stroke-width="1.5" stroke-linecap="round" stroke-linejoin="round"/>
<path d="M13 8V3.625C13 2.92881 12.7291 2.26113 12.2468 1.76884C11.7646 1.27656 11.1106 1 10.4286 1H3.57143C2.88944 1 2.23539 1.27656 1.75315 1.76884C1.27092 2.26113 1 2.92881 1 3.625V19.375C1 20.0712 1.27092 20.7389 1.75315 21.2312C2.23539 21.7234 2.88944 22 3.57143 22H10.4286C11.1106 22 11.7646 21.7234 12.2468 21.2312C12.7291 20.7389 13 20.0712 13 19.375V15" stroke="black" stroke-width="1.5" stroke-linecap="round" stroke-linejoin="round"/>
</svg>
